#!OML:ASF F:\VICON\USERDATA\INSTALL\rory3\rory3.ASF
:FULLY-SPECIFIED
:DEGREES
458
root 1.07716 18.216 14.0211 188.751 -65.1557 -165.912
lowerback -3.2747 0.161961 5.35723
upperback -9.78716 -0.192507 0.908699
thorax -8.48175 -0.713135 -1.98341
lowerneck -9.32667 -13.1552 -10.4631
upperneck 28.3145 -23.6451 13.6504
head 14.2658 -10.7604 2.93071
rclavicle 1.75334e-014 -3.1408e-014
rhumerus -16.0152 -42.0352 -18.5753
rradius 14.6506
rwrist 27.6138
rhand -4.80372 8.75945
rfingers 7.12502
rthumb 20.982 -20.1256
lclavicle 1.75334e-014 -3.1408e-014
lhumerus -32.4018 8.57552 24.1743
lradius 21.7074
lwrist -26.7317
lhand -1.84933 17.8837
lfingers 7.12502
lthumb 23.8179 46.4273
rfemur 315.492 6.00271 -332.306
rtibia 48.7414
rfoot 196.642 -196.07
rtoes -2.79114
lfemur -38.8651 0.282282 -14.7024
ltibia 49.2982
lfoot -26.1128 21.4909
ltoes 23.293
459
root 1.05406 18.222 13.8942 186.737 -64.0897 -164.031
lowerback -3.13185 0.103079 5.94655
upperback -9.21801 -0.190293 1.76813
thorax -7.94069 -0.681296 -1.41403
lowerneck -9.94544 -12.9392 -10.6032
upperneck 28.4312 -23.0899 13.3462
head 14.3249 -10.5015 2.91194
rclavicle -4.45091e-014 -1.09332e-014
rhumerus -16.066 -47.9257 -16.3671
rradius 14.3839
rwrist 33.1486
rhand -5.83433 9.17275
rfingers 7.12502
rthumb 19.9916 -19.8189
lclavicle -4.45091e-014 -1.09332e-014
lhumerus -32.7637 10.5766 23.2415
lradius 21.3901
lwrist -28.047
lhand -1.9094 18.1162
lfingers 7.12502
lthumb 23.7603 46.6673
rfemur 315.537 5.93152 -331.888
rtibia 48.6238
rfoot 197.335 -197.086
rtoes -0.661647
lfemur -38.2762 0.205911 -13.8716
ltibia 49.2576
lfoot -24.8568 22.7266
ltoes 16.5673
460
root 1.03613 18.2254 13.7778 185.115 -62.8889 -162.533
lowerback -2.56797 0.266466 6.85745
upperback -8.87578 0.121233 2.19879
thorax -7.8847 -0.558359 -1.48027
lowerneck -10.3194 -12.8357 -10.8182
upperneck 28.5975 -22.9896 13.5364
head 14.5284 -10.4287 3.00816
rclavicle -3.34269e-014 7.05686e-015
rhumerus -17.8888 -52.5826 -13.1393
rradius 14.4292
rwrist 37.4957
rhand -6.66115 9.68329
rfingers 7.12502
rthumb 19.1967 -19.3893
lclavicle -3.34269e-014 7.05686e-015
lhumerus -32.5693 11.3526 22.5652
lradius 21.1701
lwrist -28.689
lhand -2.16405 18.3977
lfingers 7.12502
lthumb 23.516 46.9803
rfemur 315.422 6.94017 -332.147
rtibia 48.4517
rfoot 193.747 -202.302
rtoes 12.6347
lfemur -37.4625 -0.311946 -12.9381
ltibia 49.0162
lfoot -27.2678 20.5839
ltoes 20.8522
461
root 1.01254 18.2323 13.6589 184.937 -61.7268 -162.33
lowerback -2.09861 0.432467 7.33025
upperback -8.79653 0.405972 2.3347
thorax -8.05574 -0.448126 -1.61024
lowerneck -10.3706 -12.7299 -10.9628
upperneck 28.7249 -22.9963 13.827
head 14.6713 -10.4197 3.13432
rclavicle -1.0461e-014 1.60022e-014
rhumerus -20.0948 -54.7236 -9.97902
rradius 14.5433
rwrist 39.5148
rhand -7.26319 9.72996
rfingers 7.12502
rthumb 18.6177 -19.3991
lclavicle -1.0461e-014 1.60022e-014
lhumerus -32.3996 11.3198 21.8707
lradius 21.1296
lwrist -28.9129
lhand -2.1413 18.8958
lfingers 7.12502
lthumb 23.5379 47.4755
rfemur 314.803 8.86628 -333.608
rtibia 48.3281
rfoot 186.12 -207.842
rtoes 29.7846
lfemur -36.7191 -1.54511 -12.4542
ltibia 48.6244
lfoot -30.0855 18.2665
ltoes 25.3583
462
root 0.988314 18.2247 13.5219 185.473 -60.6489 -162.78
lowerback -2.05662 0.455982 7.10993
upperback -8.5949 0.445608 2.61412
thorax -7.85347 -0.389339 -1.19959
lowerneck -10.6557 -12.5646 -10.7778
upperneck 28.7402 -22.5939 13.4893
head 14.5858 -10.2368 3.04868
rclavicle 3.47128e-014 -5.46658e-016
rhumerus -21.6007 -56.4661 -7.32458
rradius 14.5551
rwrist 41.2502
rhand -7.9841 9.74611
rfingers 7.12502
rthumb 17.9241 -19.4479
lclavicle 3.47128e-014 -5.46658e-016
lhumerus -32.5741 12.4344 20.7448
lradius 21.0764
lwrist -30.0633
lhand -1.68635 19.2495
lfingers 7.12502
lthumb 23.9742 47.7725
rfemur 313.976 9.20085 -334.828
rtibia 48.2096
rfoot 182.895 -209.591
rtoes 33.4491
lfemur -36.023 -2.51968 -12.3394
ltibia 48.1434
lfoot -31.1682 17.625
ltoes 25.632
463
root 0.962425 18.1881 13.4099 186.043 -59.6334 -163.313
lowerback -1.90548 0.45731 7.05707
upperback -8.34632 0.470491 2.87812
thorax -7.66813 -0.34888 -0.898437
lowerneck -11.1025 -12.4558 -10.5629
upperneck 28.7741 -22.2207 13.04
head 14.529 -10.0591 2.89711
rclavicle -9.01364e-015 6.60959e-015
rhumerus -22.9864 -58.7499 -4.44682
rradius 14.3621
rwrist 43.5501
rhand -8.64997 9.51871
rfingers 7.12502
rthumb 17.2834 -19.7328
lclavicle -9.01364e-015 6.60959e-015
lhumerus -32.8877 14.8219 19.0788
lradius 20.7965
lwrist -32.447
lhand -1.1649 19.0633
lfingers 7.12502
lthumb 24.4741 47.5197
rfemur 312.951 5.91377 -334.9
rtibia 48.1511
rfoot 186.768 -207.582
rtoes 28.5849
lfemur -35.3448 -3.7025 -12.4027
ltibia 47.667
lfoot -31.3071 18.771
ltoes 22.2176
464
root 0.938228 18.1509 13.2872 186.289 -58.5487 -163.542
lowerback -1.5642 0.571827 7.15028
upperback -8.20781 0.666492 3.02497
thorax -7.70398 -0.248594 -0.806836
lowerneck -11.4225 -12.4353 -10.6936
upperneck 28.9003 -22.19 13.078
head 14.6756 -10.029 2.91369
rclavicle -4.85159e-014 -2.48481e-015
rhumerus -25.8764 -62.3522 0.117603
rradius 13.8463
rwrist 47.2522
rhand -9.27258 9.30157
rfingers 7.12502
rthumb 16.684 -20.0014
lclavicle -4.85159e-014 -2.48481e-015
lhumerus -32.8744 16.3578 17.5895
lradius 20.5561
lwrist -34.2352
lhand -0.549304 18.7432
lfingers 7.12502
lthumb 25.0641 47.1185
rfemur 311.975 5.7753 -335.936
rtibia 47.9928
rfoot 186.697 -207.929
rtoes 27.7685
lfemur -34.5543 -4.29654 -12.3622
ltibia 47.0731
lfoot -30.8618 20.2054
ltoes 17.5274
465
root 0.905975 18.0971 13.1661 186.798 -57.7441 -164.085
lowerback -1.15051 0.697227 7.21065
upperback -8.24116 0.880756 2.98714
thorax -7.96737 -0.155789 -0.890617
lowerneck -11.4611 -12.4229 -10.4535
upperneck 28.9747 -22.1791 12.8709
head 14.6472 -10.0211 2.79856
rclavicle 4.53291e-014 -1.35174e-014
rhumerus -27.7978 -59.2047 2.40933
rradius 14.3602
rwrist 44.2043
rhand -9.67086 8.90835
rfingers 7.12502
rthumb 16.3006 -20.4265
lclavicle 4.53291e-014 -1.35174e-014
lhumerus -32.4918 16.2331 16.8502
lradius 20.4308
lwrist -34.633
lhand -0.364529 19.0465
lfingers 7.12502
lthumb 25.2412 47.397
rfemur 311.027 5.22146 -337.107
rtibia 47.7807
rfoot 185.605 -208.402
rtoes 27.6535
lfemur -33.8048 -4.47155 -12.6783
ltibia 46.448
lfoot -30.2809 21.7242
ltoes 12.9628
466
root 0.859454 18.0311 13.0659 188.273 -57.2888 -165.643
lowerback -1.04013 0.687114 7.11692
upperback -8.24338 0.870646 2.70685
thorax -8.03019 -0.162049 -1.13532
lowerneck -11.5178 -12.3668 -10.0847
upperneck 29.0104 -22.1595 12.7475
head 14.601 -9.9902 2.698
rclavicle -1.04039e-013 -2.74323e-014
rhumerus -32.2143 -62.0608 8.28283
rradius 14.0727
rwrist 47.4218
rhand -9.65026 8.54613
rfingers 7.12502
rthumb 16.3204 -20.7871
lclavicle -1.04039e-013 -2.74323e-014
lhumerus -32.0944 16.8242 15.7287
lradius 20.1039
lwrist -35.0818
lhand -0.442045 19.3398
lfingers 7.12502
lthumb 25.1669 47.7007
rfemur 309.988 3.92455 -338.887
rtibia 47.4696
rfoot 185.072 -208.19
rtoes 26.0244
lfemur -33.0711 -4.6918 -13.7861
ltibia 45.6735
lfoot -30.0346 22.6664
ltoes 12.4298
467
root 0.814912 17.9461 12.9613 188.916 -56.8608 -166.333
lowerback -0.984082 0.669447 7.45545
upperback -8.08615 0.85991 2.52893
thorax -7.88967 -0.183428 -1.51349
lowerneck -11.7674 -12.3918 -9.81212
upperneck 29.0224 -22.2792 12.7823
head 14.6487 -9.99579 2.62643
rclavicle 2.54941e-014 -3.55825e-014
rhumerus -38.4402 -65.3264 15.9562
rradius 13.891
rwrist 51.2556
rhand -9.40489 8.33929
rfingers 7.12502
rthumb 16.5567 -20.9744
lclavicle 2.54941e-014 -3.55825e-014
lhumerus -31.5458 16.742 15.0927
lradius 20.075
lwrist -34.3502
lhand -0.423416 20.2401
lfingers 7.12502
lthumb 25.1848 48.5985
rfemur 309.059 3.18734 -340.466
rtibia 47.0326
rfoot 186.919 -207.232
rtoes 18.2378
lfemur -32.1695 -5.03563 -14.3212
ltibia 44.8632
lfoot -29.9729 23.3717
ltoes 14.2714
468
root 0.776358 17.8519 12.8373 188.922 -56.4323 -166.293
lowerback -1.11888 0.609791 7.66787
upperback -7.78842 0.776165 2.82743
thorax -7.49676 -0.206701 -1.31655
lowerneck -12.1791 -12.4431 -10.2299
upperneck 29.0258 -22.2443 12.8889
head 14.8106 -9.97104 2.70547
rclavicle 9.4547e-015 -5.56597e-014
rhumerus -40.4014 -65.0791 19.1635
rradius 13.9573
rwrist 50.7875
rhand -9.37679 7.63115
rfingers 7.12502
rthumb 16.5837 -21.6803
lclavicle 9.4547e-015 -5.56597e-014
lhumerus -31.3965 16.3416 15.0172
lradius 20.3853
lwrist -33.0294
lhand -0.364456 21.7889
lfingers 7.12502
lthumb 25.2412 50.1394
rfemur 308.145 3.45001 -341.966
rtibia 46.5627
rfoot 178.78 -210.198
rtoes 36.9969
lfemur -31.1348 -5.2028 -14.3239
ltibia 44.0359
lfoot -30.7359 23.3253
ltoes 16.6944
469
root 0.734238 17.7526 12.708 189.524 -55.8448 -166.919
lowerback -1.18143 0.439518 7.68813
upperback -7.56591 0.541891 2.92927
thorax -7.23765 -0.303122 -1.21335
lowerneck -12.852 -12.3559 -10.6075
upperneck 29.2857 -22.0853 13.0342
head 15.1319 -9.87001 2.80434
rclavicle 6.43317e-014 -8.98507e-014
rhumerus -44.7159 -66.4671 24.6829
rradius 13.823
rwrist 52.5648
rhand -9.66357 7.28531
rfingers 7.12502
rthumb 16.3076 -22.049
lclavicle 6.43317e-014 -8.98507e-014
lhumerus -31.5411 15.4606 14.5347
lradius 20.7014
lwrist -31.5397
lhand -0.119586 23.2701
lfingers 7.12502
lthumb 25.4758 51.5872
rfemur 307.14 4.10462 -344.055
rtibia 46.0614
rfoot 178.072 -210.956
rtoes 42.3028
lfemur -29.9545 -5.56954 -14.6911
ltibia 43.1903
lfoot -32.1427 23.4982
ltoes 15.7046
470
root 0.693304 17.6305 12.5743 190.158 -55.231 -167.634
lowerback -1.15496 0.2997 7.60752
upperback -7.44659 0.354748 2.8779
thorax -7.13682 -0.382145 -1.21649
lowerneck -13.378 -12.2321 -10.3958
upperneck 29.562 -21.9312 12.8869
head 15.2987 -9.76079 2.71418
rclavicle -2.99171e-014 -2.26615e-014
rhumerus -57.2794 -69.9519 38.8849
rradius 13.6603
rwrist 58.231
rhand -9.54636 7.45365
rfingers 7.12502
rthumb 16.4205 -21.8714
lclavicle -2.99171e-014 -2.26615e-014
lhumerus -31.3942 15.3982 13.3145
lradius 20.547
lwrist -31.3738
lhand 0.663166 24.0383
lfingers 7.12502
lthumb 26.2254 52.2463
rfemur 306.024 2.75257 -345.125
rtibia 45.6233
rfoot 176.274 -212.325
rtoes 34.8862
lfemur -28.681 -5.63541 -15.1594
ltibia 42.3756
lfoot -32.9729 24.3659
ltoes 11.8834
